<?xml version="1.0" encoding="UTF-8" standalone="no"?>
<!-- Generator: Adobe Illustrator 18.0.0, SVG Export Plug-In . SVG Version: 6.00 Build 0)  -->

<svg
   version="1.1"
   id="Capa_1"
   x="0px"
   y="0px"
   viewBox="0 0 269.106 269.106"
   style="enable-background:new 0 0 269.106 269.106;"
   xml:space="preserve"
   sodipodi:docname="antenna_grey.svg"
   inkscape:version="1.2.1 (9c6d41e410, 2022-07-14)"
   xmlns:inkscape="http://www.inkscape.org/namespaces/inkscape"
   xmlns:sodipodi="http://sodipodi.sourceforge.net/DTD/sodipodi-0.dtd"
   xmlns="http://www.w3.org/2000/svg"
   xmlns:svg="http://www.w3.org/2000/svg"><defs
   id="defs47" /><sodipodi:namedview
   id="namedview45"
   pagecolor="#ffffff"
   bordercolor="#000000"
   borderopacity="0.25"
   inkscape:showpageshadow="2"
   inkscape:pageopacity="0.0"
   inkscape:pagecheckerboard="0"
   inkscape:deskcolor="#d1d1d1"
   showgrid="false"
   inkscape:zoom="2.0906918"
   inkscape:cx="145.64557"
   inkscape:cy="181.04055"
   inkscape:window-width="1898"
   inkscape:window-height="1035"
   inkscape:window-x="0"
   inkscape:window-y="0"
   inkscape:window-maximized="1"
   inkscape:current-layer="g12" />
<g
   id="g12">
	<path
   fill="#CC0000"
   d="M143.883,73.8c6.877-3.44,11.622-10.535,11.622-18.733c0-11.555-9.399-20.955-20.953-20.955s-20.954,9.4-20.954,20.955   c0,8.199,4.745,15.293,11.623,18.733L71.607,259.524c-1.148,3.98,1.146,8.137,5.126,9.286c3.98,1.148,8.138-1.146,9.286-5.125   l17.015-58.941h63.035l17.015,58.941c0.948,3.285,3.946,5.422,7.202,5.422c0.688,0,1.39-0.096,2.084-0.296   c3.979-1.148,6.274-5.306,5.126-9.286L143.883,73.8z M134.552,49.112c3.282,0,5.953,2.671,5.953,5.955   c0,3.283-2.671,5.953-5.953,5.953c-3.283,0-5.954-2.67-5.954-5.953C128.598,51.783,131.269,49.112,134.552,49.112z    M146.046,135.381h-22.989l11.495-39.819L146.046,135.381z M107.363,189.743l11.363-39.361h31.649l11.362,39.361H107.363z"
   id="path2" />
	<path
   fill="#CC0000"
   d="M87.697,110.833c1.957,0,3.912-0.761,5.382-2.276c2.886-2.972,2.815-7.72-0.156-10.605   C81.228,86.597,74.786,71.369,74.786,55.073c0-15.966,6.217-30.978,17.506-42.27c2.929-2.929,2.929-7.678-0.001-10.607   c-2.931-2.93-7.68-2.928-10.606,0.001C67.564,16.322,59.786,35.101,59.786,55.073c0,20.387,8.058,39.437,22.688,53.641   C83.932,110.128,85.816,110.833,87.697,110.833z"
   id="path4" />
	<path
   fill="#CC0000"
   d="M194.32,55.073c0,15.959-6.216,30.965-17.503,42.254c-2.929,2.929-2.929,7.678,0.001,10.606   c1.465,1.464,3.384,2.196,5.303,2.196c1.919,0,3.84-0.732,5.304-2.197c14.119-14.122,21.895-32.894,21.895-52.859   c0-19.972-7.777-38.75-21.9-52.875c-2.929-2.929-7.678-2.931-10.606-0.001c-2.93,2.929-2.93,7.677-0.001,10.607   C188.102,24.095,194.32,39.107,194.32,55.073z"
   id="path6" />
	<path
   fill="#CC0000"
   d="M101.557,89.733c1.451,1.382,3.313,2.068,5.17,2.068c1.981,0,3.959-0.78,5.434-2.329c2.855-3.001,2.738-7.748-0.262-10.604   c-6.582-6.266-10.207-14.719-10.207-23.802c0-8.778,3.418-17.032,9.625-23.24c2.929-2.93,2.928-7.678-0.001-10.607   c-2.931-2.929-7.68-2.928-10.606,0.001c-9.039,9.042-14.018,21.062-14.018,33.846C86.692,68.297,91.971,80.608,101.557,89.733z"
   id="path8" />
	<path
   fill="#CC0000"
   d="M157.789,88.906c1.465,1.464,3.384,2.196,5.303,2.196c1.92,0,3.84-0.732,5.304-2.197   c9.038-9.041,14.016-21.058,14.016-33.838c0-12.341-4.684-24.059-13.188-32.995c-2.855-3-7.602-3.118-10.604-0.262   c-3,2.855-3.117,7.603-0.262,10.603c5.838,6.135,9.054,14.18,9.054,22.654c0,8.775-3.418,17.025-9.623,23.233   C154.86,81.229,154.861,85.978,157.789,88.906z"
   id="path10" />
<path
   style="fill:#000000;stroke-width:0.307902"
   d="m 189.01997,268.78781 c -1.62048,-0.27163 -3.87385,-1.70307 -4.73645,-3.00879 -0.50953,-0.77125 -3.54864,-10.83007 -9.43715,-31.23499 l -8.68559,-30.09738 h -31.66083 c -17.41345,0 -31.66082,0.0812 -31.66082,0.18039 0,0.0992 -3.885389,13.64303 -8.634197,30.09738 -6.478599,22.44797 -8.838658,30.21256 -9.45316,31.1009 -2.045378,2.95683 -6.333333,3.88292 -9.518948,2.05586 -0.873741,-0.50113 -1.881187,-1.32201 -2.238767,-1.82418 -0.828921,-1.16411 -1.56089,-3.23155 -1.56089,-4.40872 0,-0.50289 12.044313,-42.64105 26.76514,-93.64035 14.720832,-50.99929 26.854662,-93.087869 26.964082,-93.530163 0.17523,-0.708266 0.0364,-0.899408 -1.16376,-1.602773 -9.84872,-5.771735 -13.11019,-18.540582 -7.26611,-28.447251 1.39668,-2.367612 4.90727,-5.830458 7.35654,-7.256505 3.33897,-1.944061 6.36019,-2.761353 10.30998,-2.789036 3.74176,-0.02622 6.41017,0.59794 9.73793,2.27779 3.525,1.779412 7.14927,5.484841 9.07288,9.276056 2.65645,5.235549 2.69883,12.560859 0.1041,17.997616 -1.65613,3.470119 -4.90449,7.006169 -8.22232,8.950549 -1.18444,0.694124 -1.32305,0.886427 -1.14861,1.593554 0.1091,0.442294 12.10933,42.069983 26.66717,92.505983 14.55784,50.436 26.6285,92.39366 26.82368,93.23924 1.10604,4.79161 -3.42262,9.4015 -8.4139,8.56482 z m -27.19104,-79.35136 c -0.0928,-0.29635 -2.46556,-8.50578 -5.27271,-18.24317 -2.80714,-9.73739 -5.31363,-18.43176 -5.56997,-19.32082 l -0.46607,-1.61649 h -15.96829 c -14.94115,0 -15.97866,0.0347 -16.12963,0.53883 -0.0887,0.29636 -2.59608,8.99073 -5.57187,19.32083 -2.97579,10.3301 -5.48514,19.02447 -5.57633,19.32082 -0.15705,0.51038 1.28319,0.53883 27.27893,0.53883 25.99689,0 27.43584,-0.0284 27.27594,-0.53883 z m -15.65657,-54.34463 c -0.0807,-0.21168 -2.69347,-9.21728 -5.8061,-20.01244 -3.11262,-10.79517 -5.72859,-19.627569 -5.81327,-19.627569 -0.0847,0 -2.70064,8.832399 -5.81326,19.627569 -3.11263,10.79516 -5.72537,19.80076 -5.8061,20.01244 -0.11584,0.30375 2.33343,0.38488 11.61936,0.38488 9.28593,0 11.73521,-0.0811 11.61937,-0.38488 z m -9.92692,-74.164469 c 1.68764,-0.468515 3.68553,-2.520006 4.15611,-4.267628 0.68313,-2.536936 -0.25373,-5.08239 -2.43861,-6.625715 -1.14454,-0.808463 -1.56996,-0.923705 -3.40995,-0.923705 -1.83998,0 -2.26541,0.115242 -3.40994,0.923705 -4.09227,2.890644 -3.25806,9.108956 1.447,10.786067 1.47199,0.524689 2.08682,0.542733 3.65539,0.107276 z"
   id="path276" /><path
   style="fill:#000000;stroke-width:0.307902"
   d="m 104.37864,91.167523 c -1.41918,-0.495478 -2.15444,-1.073597 -4.539593,-3.56937 -15.193229,-15.897877 -17.247842,-40.70931 -4.889113,-59.04075 2.076886,-3.0806 5.545176,-7.071875 7.010446,-8.067552 5.12362,-3.481588 11.98347,0.727526 11.25195,6.904047 -0.23582,1.991193 -0.72895,2.884834 -2.93544,5.319611 -3.71837,4.103071 -6.22886,8.690858 -7.6742,14.024162 -0.73196,2.700934 -0.80915,3.506812 -0.8023,8.376713 0.007,4.810153 0.0929,5.706045 0.80308,8.349946 1.48719,5.536788 3.92734,9.877138 8.10134,14.410041 2.70319,2.935617 3.21878,3.950645 3.21878,6.336713 0,5.113196 -4.80146,8.612537 -9.54495,6.956439 z"
   id="path278" /><path
   style="fill:#000000;stroke-width:0.307902"
   d="M 84.365035,109.77679 C 81.89192,108.47164 76.456489,102.3324 72.498043,96.373197 66.477304,87.309332 62.902064,78.312487 60.91494,67.225114 c -0.621745,-3.469093 -0.708175,-4.947159 -0.708175,-12.11073 0,-7.106138 0.08918,-8.656234 0.690883,-12.008337 2.744274,-15.288485 9.065415,-28.123252 19.126658,-38.8357451 3.083015,-3.28257353 4.343394,-4.00638624 6.976342,-4.00638624 4.067746,0 7.194641,3.10721354 7.210476,7.16509564 0.0095,2.4186227 -0.580385,3.5937677 -3.266297,6.5076607 -2.738538,2.970989 -5.952011,7.194373 -7.786505,10.233603 -10.422795,17.267583 -11.255901,39.871454 -2.130287,57.799107 2.943188,5.782016 5.911868,9.976276 10.630828,15.019618 2.752428,2.94163 3.28172,3.96004 3.28047,6.31198 -0.0012,2.13234 -0.713248,3.76421 -2.310949,5.2957 -2.156266,2.06691 -5.640169,2.56445 -8.263349,1.18011 z"
   id="path280" /><path
   style="fill:#000000;stroke-width:0.307902"
   d="m 159.74219,90.050244 c -3.32301,-1.730302 -4.85957,-5.94905 -3.36509,-9.239142 0.31096,-0.684569 1.42534,-2.208682 2.4764,-3.386917 3.85059,-4.316472 6.43198,-9.136031 7.80709,-14.576141 0.56364,-2.229823 0.6679,-3.488673 0.65331,-7.887611 -0.0154,-4.634637 -0.1092,-5.576707 -0.81892,-8.222762 -1.38752,-5.173104 -3.7918,-9.636894 -7.44969,-13.831093 -2.48671,-2.851296 -3.13824,-5.220663 -2.18136,-7.932745 1.43532,-4.068113 6.06896,-6.111075 9.90735,-4.368124 2.75304,1.250115 7.22608,6.95934 10.27098,13.109515 3.81436,7.70435 5.05918,12.976155 5.05295,21.39916 -0.005,6.215157 -0.46924,9.228266 -2.28036,14.787861 -1.84437,5.661691 -4.60443,10.710396 -8.32742,15.232544 -2.46359,2.992415 -4.25175,4.660475 -5.59556,5.219751 -1.7445,0.726038 -4.42575,0.593366 -6.14968,-0.304296 z"
   id="path282" /><path
   style="fill:#000000;stroke-width:0.307902"
   d="m 179.52026,109.43519 c -2.89524,-1.25594 -4.62355,-3.80852 -4.62915,-6.83688 -0.004,-2.3119 0.59334,-3.474825 3.33599,-6.491599 9.76347,-10.739358 15.11793,-23.02828 16.03459,-36.800755 1.14617,-17.220822 -4.67338,-33.297925 -16.62724,-45.934416 -2.10879,-2.229219 -2.74866,-3.6171792 -2.73959,-5.9425287 0.0158,-4.0578821 3.14273,-7.16509564 7.21048,-7.16509564 2.63295,0 3.89333,0.72381271 6.97634,4.00638624 8.5154,9.0665901 14.66673,20.2794771 17.69723,32.2592011 1.7655,6.979144 2.12798,10.144824 2.12798,18.584881 0,8.465705 -0.37531,11.724843 -2.14385,18.61707 -3.05532,11.906923 -8.83215,22.448929 -17.57953,32.080486 -2.70552,2.97899 -4.6591,4.11534 -7.0432,4.09688 -0.85582,-0.007 -2.03484,-0.21976 -2.62005,-0.47363 z"
   id="path284" /><path
   style="fill:#000000;fill-opacity:1;stroke-width:0.19421"
   d="m 86.035233,110.62204 c -1.826158,-0.44965 -2.47834,-0.90493 -5.146578,-3.59279 C 65.091906,91.116312 57.466613,68.145185 60.413539,45.348142 62.443973,29.640963 69.40349,15.066617 80.363912,3.5688504 81.303685,2.5830047 82.483514,1.515518 82.985754,1.1966579 c 4.138516,-2.6274443 9.639696,-0.63714752 11.108319,4.018929 0.491848,1.5593385 0.493885,2.9515 0.0066,4.5230314 -0.469145,1.5130827 -0.705126,1.8426507 -3.476132,4.8546917 -8.239626,8.956347 -13.331168,19.598496 -15.178678,31.725884 -0.528325,3.468016 -0.728118,10.456419 -0.400715,14.016248 0.742844,8.076879 2.814714,15.185681 6.507344,22.327384 2.574103,4.978422 5.868432,9.537769 10.178739,14.087355 2.321664,2.450549 2.975038,3.497309 3.339597,5.350329 0.757407,3.84982 -2.051904,7.8459 -6.048667,8.60387 -1.240578,0.23527 -1.754573,0.2211 -2.986951,-0.0823 z"
   id="path2465" /><path
   style="fill:#000000;fill-opacity:1;stroke-width:0.19421"
   d="M 105.24402,91.661393 C 103.80056,91.375206 102.56393,90.629322 100.9155,89.050602 95.114545,83.494964 90.593839,75.798283 88.373726,67.697737 87.144824,63.213834 86.832696,60.707338 86.823993,55.252875 86.815265,49.781693 87.039924,47.791878 88.178907,43.252372 90.124162,35.4994 94.182585,28.1031 99.641986,22.361406 c 2.285304,-2.403475 3.513614,-3.100684 5.762224,-3.270746 3.5292,-0.266914 6.60956,1.786682 7.71167,5.141173 0.50334,1.532024 0.50803,2.959423 0.0149,4.53941 -0.40074,1.284024 -0.84953,1.925555 -3.26808,4.6716 -3.93299,4.465567 -6.6493,10.145202 -7.64429,15.983718 -0.34519,2.025555 -0.38434,2.88964 -0.29921,6.603156 0.0843,3.677864 0.16605,4.556496 0.58713,6.31184 0.69178,2.883815 1.54534,5.1886 2.87697,7.768418 1.46366,2.835591 3.14057,5.17612 5.59769,7.8129 2.12787,2.283459 2.76654,3.335821 3.12248,5.145008 0.7574,3.849822 -2.05191,7.845903 -6.04867,8.603873 -1.13748,0.215719 -1.68056,0.213717 -2.81079,-0.01037 z"
   id="path2467" /><path
   style="fill:#000000;fill-opacity:1;stroke-width:0.19421"
   d="m 160.95892,90.802954 c -1.99024,-0.621996 -3.77043,-2.199156 -4.68545,-4.151074 -0.45151,-0.963152 -0.51668,-1.347139 -0.51668,-3.044278 0,-2.57203 0.38771,-3.432936 2.72644,-6.054039 4.38786,-4.91764 6.95679,-9.880294 8.27666,-15.988848 0.38701,-1.791129 0.44016,-2.582626 0.43689,-6.50605 -0.003,-3.892058 -0.06,-4.729243 -0.44127,-6.506051 -1.29492,-6.034946 -3.66646,-10.604193 -8.42577,-16.23398 -1.4785,-1.748916 -1.95829,-2.995618 -1.97396,-5.12917 -0.0107,-1.462414 0.0578,-1.79882 0.60034,-2.948039 0.81852,-1.733689 1.95873,-2.929691 3.53093,-3.703682 1.2002,-0.590854 1.41261,-0.631171 3.32539,-0.631171 1.8617,0 2.14685,0.05035 3.20855,0.566575 3.35189,1.629757 9.22912,9.912291 12.01661,16.934484 6.12476,15.429417 3.82166,32.81581 -6.12727,46.255569 -1.74517,2.357508 -4.26305,5.155367 -5.38479,5.983574 -1.72216,1.27151 -4.58483,1.775536 -6.56662,1.15618 z"
   id="path2469" /><path
   style="fill:#000000;fill-opacity:1;stroke-width:0.19421"
   d="m 180.11648,109.85177 c -1.99888,-0.53895 -3.86896,-2.15901 -4.81039,-4.16727 -0.45715,-0.97517 -0.51649,-1.33713 -0.51505,-3.14138 0.002,-1.91933 0.0381,-2.10771 0.62217,-3.204471 0.3577,-0.671694 1.53665,-2.1524 2.78339,-3.495788 13.37611,-14.413118 18.78276,-33.787229 14.82303,-53.11656 -0.96331,-4.702356 -2.43663,-8.979894 -4.71593,-13.691838 -2.84719,-5.885944 -5.86973,-10.23871 -10.59999,-15.265061 -1.03485,-1.099627 -1.9923,-2.334563 -2.33386,-3.010262 -0.5332,-1.0547973 -0.57921,-1.3077953 -0.5798,-3.1879591 -6e-4,-1.9108923 0.0399,-2.1245414 0.62885,-3.3219701 0.75916,-1.5433431 2.14915,-2.9070979 3.6979,-3.62810133 0.95455,-0.44438339 1.3696,-0.5174784 2.9555,-0.52049492 2.92004,-0.0055541 4.17053,0.70166885 7.30625,4.13208645 9.57948,10.479795 15.89943,22.839481 18.49558,36.171112 1.12628,5.783629 1.29053,7.648808 1.29053,14.654852 0,6.994538 -0.16488,8.874151 -1.28157,14.609205 -2.26345,11.624551 -7.36659,22.593862 -14.91452,32.05902 -2.16907,2.72005 -5.52767,6.34373 -6.49917,7.01214 -1.79055,1.23193 -4.2883,1.66942 -6.35292,1.11274 z"
   id="path2471" /><path
   style="fill:#000000;fill-opacity:1;stroke-width:0.556658"
   d="m 73.691682,266.70462 c -2.018752,-2.01875 -2.428641,-3.12155 -2.196791,-5.9104 0.05091,-0.61232 12.134741,-42.91875 26.852968,-94.01428 25.158511,-87.339829 26.697951,-92.935785 25.716971,-93.482673 -2.47298,-1.378672 -7.00202,-6.340456 -8.41648,-9.220665 -1.37791,-2.805789 -1.53348,-3.71551 -1.53348,-8.96747 0,-5.283805 0.15061,-6.151614 1.56887,-9.039807 5.59288,-11.389502 19.82798,-15.40036 30.22827,-8.517068 12.18871,8.066932 12.76081,25.460445 1.12635,34.244546 l -3.00615,2.26967 3.57818,12.370151 c 24.53967,84.836176 49.88393,173.038246 50.10806,174.384086 0.40127,2.40942 -1.10664,5.59718 -3.27218,6.91747 -3.82722,2.33339 -8.76368,1.09672 -10.69386,-2.67901 -0.41659,-0.81491 -4.18655,-13.38022 -8.3777,-27.92291 -4.19115,-14.54268 -8.02423,-27.75635 -8.51795,-29.3637 l -0.89769,-2.92245 h -31.51239 -31.51239 l -0.69789,2.64412 c -2.51218,9.51803 -16.426422,56.79141 -17.097971,58.09004 -1.086737,2.10152 -3.491463,3.28149 -6.687511,3.28149 -2.275777,0 -2.866203,-0.26811 -4.759236,-2.16114 z m 87.607828,-77.30177 c 0.11702,-0.22962 -2.30943,-9.12223 -5.3921,-19.76136 l -5.60486,-19.34386 h -15.38156 c -11.62903,0 -15.52111,0.16975 -15.95362,0.69582 -0.53172,0.64675 -11.25407,37.13829 -11.25407,38.30115 0,0.62877 53.26612,0.73638 53.58621,0.10825 z m -19.72784,-69.30391 c -2.42056,-8.34291 -4.97915,-17.16617 -5.68574,-19.60725 l -1.28472,-4.438316 -0.61713,1.933356 c -0.9796,3.06885 -10.68436,36.66753 -10.68436,36.99012 0,0.16006 5.10142,0.29102 11.33649,0.29102 h 11.33649 z m -3.13054,-60.954039 c 1.90803,-2.037903 2.32757,-3.653245 1.55601,-5.991085 -0.8485,-2.570991 -2.47278,-3.611263 -5.63863,-3.611263 -2.23104,0 -2.81918,0.248647 -4.05108,1.712683 -3.30245,3.924734 -0.8191,9.420474 4.25682,9.420474 1.94722,0 2.73479,-0.310976 3.87688,-1.530809 z"
   id="path2473" /><path
   style="fill:#8f8f8f;fill-opacity:1;stroke-width:0.490527"
   d="M 84.1806,110.01824 C 82.121589,109.00394 75.611341,101.63556 72.138262,96.388571 56.598406,72.911567 55.564908,42.436396 69.481189,18.038364 73.521321,10.955201 80.590625,2.3539714 83.733139,0.69800188 88.302957,-1.7100954 94.426462,1.9864869 94.426462,7.1532504 c 0,2.9752856 -0.480605,3.9305236 -3.928325,7.8078256 -9.245327,10.397283 -14.028138,21.450048 -15.235461,35.208155 -1.461304,16.652349 4.169616,32.738964 16.124767,46.065815 1.6184,1.804089 3.206856,4.081034 3.529903,5.059874 2.017189,6.11214 -4.797633,11.649 -10.736746,8.72332 z"
   id="path2619" /><path
   style="fill:#8f8f8f;fill-opacity:1;stroke-width:0.237939"
   d="m 104.812,91.635982 c -1.50561,-0.495436 -2.78963,-1.3897 -4.55697,-3.173748 C 94.414732,82.566729 90.094344,74.843888 88.0564,66.656759 86.971401,62.297943 86.847053,61.070203 86.860067,54.844874 c 0.0116,-5.549989 0.05618,-6.155677 0.665528,-9.041671 1.793278,-8.493389 5.650057,-16.264514 11.15932,-22.485209 2.988135,-3.373998 4.479195,-4.252888 7.248375,-4.272453 3.01972,-0.02134 5.43196,1.479319 6.78018,4.217953 0.66204,1.344789 0.78282,1.849706 0.78021,3.26167 -0.004,2.231386 -0.6934,3.640597 -3.20296,6.548318 -5.81232,6.7345 -8.34364,13.337545 -8.32663,21.720345 0.0124,6.122656 0.69886,9.403269 2.95504,14.122676 1.79255,3.749622 3.28569,5.898137 6.69796,9.637872 1.99193,2.18309 2.5553,3.424186 2.57649,5.675931 0.0137,1.451167 -0.0996,2.032858 -0.60646,3.11378 -1.24903,2.663876 -3.63784,4.281719 -6.5147,4.412131 -0.91606,0.04153 -1.93325,-0.01259 -2.26042,-0.120235 z"
   id="path2690" /><path
   style="fill:#8f8f8f;fill-opacity:1;stroke-width:0.237939"
   d="m 160.8219,90.807332 c -3.75658,-1.230576 -5.97645,-5.265791 -4.97591,-9.045081 0.41469,-1.566372 0.81392,-2.207015 2.76204,-4.432168 4.36089,-4.981019 7.04131,-10.392092 8.1959,-16.545373 0.32132,-1.712486 0.37683,-3.047219 0.28165,-6.772621 -0.10876,-4.256641 -0.18026,-4.865692 -0.86583,-7.375108 -1.28017,-4.685806 -3.5613,-8.905319 -7.2683,-13.44453 -2.18406,-2.674364 -2.59289,-3.607954 -2.6049,-5.948468 -0.008,-1.515082 0.10109,-2.12861 0.53354,-3.006623 1.63315,-3.315894 4.50679,-4.847378 8.22404,-4.382939 2.62221,0.327624 5.44371,2.954959 9.22477,8.589949 5.3739,8.008848 8.03572,16.744035 8.04677,26.406745 0.008,7.319745 -1.2187,13.24692 -4.09133,19.762722 -2.81931,6.394821 -8.83604,14.337109 -11.96518,15.794426 -1.4535,0.676934 -4.06934,0.866828 -5.49726,0.399069 z"
   id="path2692" /><path
   style="fill:#8f8f8f;fill-opacity:1;stroke-width:0.237939"
   d="m 179.857,109.84254 c -3.16623,-1.03755 -5.15747,-3.84983 -5.17142,-7.30374 -0.01,-2.40892 0.46583,-3.330913 3.45131,-6.6914 6.30349,-7.095254 10.40513,-14.025798 13.05113,-22.052501 2.14077,-6.494071 2.95534,-11.710499 2.94058,-18.831055 -0.0206,-9.942022 -1.89943,-17.88503 -6.32442,-26.737667 -2.63725,-5.276101 -5.16508,-8.913986 -9.71777,-13.985187 -2.95165,-3.287818 -3.41588,-4.204227 -3.41475,-6.7408925 7.5e-4,-1.7116357 0.0838,-2.0640199 0.80518,-3.4156008 0.80309,-1.5047173 1.98809,-2.6719892 3.57204,-3.51859943 1.27634,-0.68219368 4.71768,-0.62758682 6.29948,0.0999596 2.12607,0.97788123 7.76363,7.36431743 11.60097,13.14199313 6.7022,10.09116 10.98346,22.110163 12.07502,33.898863 0.31157,3.364834 0.31181,11.402485 4.8e-4,14.685949 -1.35813,14.321833 -7.06751,28.265682 -16.18841,39.536488 -3.57968,4.42346 -5.86601,6.69442 -7.48673,7.43641 -1.6424,0.75191 -4.02283,0.95863 -5.49265,0.47698 z"
   id="path2694" /><path
   style="fill:#8f8f8f;fill-opacity:1;stroke-width:0.478311"
   d="m 76.574516,268.80573 c -1.988145,-0.61606 -4.52913,-3.25879 -5.072085,-5.27517 -0.343019,-1.27387 -0.272008,-2.46904 0.270975,-4.56075 0.404693,-1.55897 10.430223,-36.51952 22.278956,-77.6901 22.774468,-79.13403 28.693018,-100.030253 29.665018,-104.736229 0.58775,-2.84559 0.57759,-2.910727 -0.57493,-3.685945 -2.02997,-1.365417 -5.55687,-5.210962 -6.93337,-7.559782 -3.44402,-5.876773 -3.40002,-14.69607 0.10313,-20.673746 4.28027,-7.303732 13.3998,-11.703146 21.41385,-10.330397 13.23271,2.266665 21.11477,15.759824 16.4653,28.186635 -1.47677,3.947032 -5.86024,9.150829 -9.35641,11.107386 -0.59254,0.331598 2.70576,12.238132 20.10549,72.578908 11.44786,39.70023 23.52031,81.57835 26.82765,93.06248 3.30733,11.48413 6.01333,21.73 6.01333,22.76859 0,2.56229 -1.63431,4.88106 -4.41169,6.25935 -3.04944,1.5133 -5.56383,1.11102 -8.09574,-1.29524 -2.0177,-1.91757 -1.03856,1.14153 -14.6411,-45.74308 l -4.71822,-16.26256 -31.38605,-0.123 c -29.58972,-0.11597 -31.39996,-0.0749 -31.62908,0.71746 -0.13367,0.46227 -2.18188,7.62053 -4.55158,15.90726 -9.004751,31.48923 -12.822305,44.00573 -13.726589,45.00495 -1.887675,2.08586 -5.4909,3.135 -8.046855,2.34298 z M 160.95151,188.5705 c 0,-0.46228 -2.36764,-9.08514 -5.26142,-19.16193 -2.89378,-10.07679 -5.26141,-18.41872 -5.26141,-18.53762 0,-0.11891 -7.0491,-0.15944 -15.66467,-0.0901 l -15.66468,0.12611 -1.04424,3.1224 c -1.04825,3.13437 -9.39101,31.602 -9.9835,34.06625 l -0.31626,1.31535 h 26.59809 c 25.05424,0 26.59809,-0.0488 26.59809,-0.84049 z m -15.52489,-54.52396 c -1.17627,-4.79529 -10.48257,-36.318758 -10.8305,-36.686421 -0.2365,-0.249918 -0.43,-0.298562 -0.43,-0.108094 0,0.190468 -2.36764,8.553925 -5.26142,18.585455 -2.89378,10.03153 -5.26142,18.41088 -5.26142,18.62078 0,0.46317 3.92915,0.686 14.2816,0.80995 l 7.8244,0.0937 z M 137.4235,59.776561 c 2.1921,-1.336489 3.22569,-3.913338 2.51761,-6.276698 -0.77547,-2.588295 -2.4902,-3.755563 -5.51696,-3.755563 -1.96548,0 -2.68708,0.224251 -3.46306,1.076199 -2.20674,2.422799 -2.66181,4.999684 -1.24822,7.068232 1.88902,2.764238 5.01701,3.530082 7.71063,1.88783 z"
   id="path2696" /></g>
<g
   id="g14">
</g>
<g
   id="g16">
</g>
<g
   id="g18">
</g>
<g
   id="g20">
</g>
<g
   id="g22">
</g>
<g
   id="g24">
</g>
<g
   id="g26">
</g>
<g
   id="g28">
</g>
<g
   id="g30">
</g>
<g
   id="g32">
</g>
<g
   id="g34">
</g>
<g
   id="g36">
</g>
<g
   id="g38">
</g>
<g
   id="g40">
</g>
<g
   id="g42">
</g>
</svg>
