<?xml version="1.0" encoding="UTF-8"?>
<!DOCTYPE svg PUBLIC "-//W3C//DTD SVG 1.1//EN" "http://www.w3.org/Graphics/SVG/1.1/DTD/svg11.dtd">
<svg xmlns="http://www.w3.org/2000/svg" xmlns:xlink="http://www.w3.org/1999/xlink" version="1.1" width="162px" height="83px" viewBox="-0.5 -0.5 162 83"><defs/><g><rect x="60" y="1" width="10" height="80" fill="none" stroke="none" pointer-events="all"/><path d="M 60 40.88 C 62.03 1.21 62.99 1 65 40.88 C 67.01 80.76 67.95 81 70 40.88" fill="none" stroke="#cc0000" stroke-width="3" stroke-miterlimit="10" pointer-events="all"/><rect x="70" y="1" width="10" height="80" fill="none" stroke="none" pointer-events="all"/><path d="M 70 40.88 C 72.03 1.21 72.99 1 75 40.88 C 77.01 80.76 77.95 81 80 40.88" fill="none" stroke="#cc0000" stroke-width="3" stroke-miterlimit="10" pointer-events="all"/><rect x="80" y="1" width="10" height="80" fill="none" stroke="none" pointer-events="all"/><path d="M 80 40.88 C 82.03 1.21 82.99 1 85 40.88 C 87.01 80.76 87.95 81 90 40.88" fill="none" stroke="#cc0000" stroke-width="3" stroke-miterlimit="10" pointer-events="all"/><rect x="90" y="1" width="10" height="80" fill="none" stroke="none" pointer-events="all"/><path d="M 90 40.88 C 92.03 1.21 92.99 1 95 40.88 C 97.01 80.76 97.95 81 100 40.88" fill="none" stroke="#cc0000" stroke-width="3" stroke-miterlimit="10" pointer-events="all"/><path d="M 1 40.8 L 61 40.8" fill="none" stroke="#cc0000" stroke-width="3" stroke-miterlimit="10" pointer-events="stroke"/><path d="M 99 40.92 L 159 40.92" fill="none" stroke="#cc0000" stroke-width="3" stroke-miterlimit="10" pointer-events="stroke"/></g></svg>