<?xml version="1.0" encoding="UTF-8"?>
<!DOCTYPE svg PUBLIC "-//W3C//DTD SVG 1.1//EN" "http://www.w3.org/Graphics/SVG/1.1/DTD/svg11.dtd">
<svg xmlns="http://www.w3.org/2000/svg" xmlns:xlink="http://www.w3.org/1999/xlink" version="1.1" width="163px" height="83px" viewBox="-0.5 -0.5 163 83"><defs/><g><rect x="61" y="1" width="10" height="80" fill="none" stroke="none" pointer-events="all"/><path d="M 61 40.88 C 63.03 1.21 63.99 1 66 40.88 C 68.01 80.76 68.95 81 71 40.88" fill="none" stroke="#cc0000" stroke-width="3" stroke-miterlimit="10" pointer-events="all"/><rect x="1.1" y="30.6" width="20" height="20" fill="none" stroke="none" pointer-events="all"/><path d="M 1.1 40.57 C 5.17 30.65 7.09 30.6 11.1 40.57 C 15.11 50.54 16.99 50.6 21.1 40.57" fill="none" stroke="rgb(0, 0, 0)" stroke-width="3" stroke-miterlimit="10" pointer-events="all"/><rect x="21.1" y="30.6" width="20" height="20" fill="none" stroke="none" pointer-events="all"/><path d="M 21.1 40.57 C 25.17 30.65 27.09 30.6 31.1 40.57 C 35.11 50.54 36.99 50.6 41.1 40.57" fill="none" stroke="rgb(0, 0, 0)" stroke-width="3" stroke-miterlimit="10" pointer-events="all"/><rect x="41.1" y="30.6" width="20" height="20" fill="none" stroke="none" pointer-events="all"/><path d="M 41.1 40.57 C 45.17 30.65 47.09 30.6 51.1 40.57 C 55.11 50.54 56.99 50.6 61.1 40.57" fill="none" stroke="rgb(0, 0, 0)" stroke-width="3" stroke-miterlimit="10" pointer-events="all"/><rect x="71" y="1" width="10" height="80" fill="none" stroke="none" pointer-events="all"/><path d="M 71 40.88 C 73.03 1.21 73.99 1 76 40.88 C 78.01 80.76 78.95 81 81 40.88" fill="none" stroke="#cc0000" stroke-width="3" stroke-miterlimit="10" pointer-events="all"/><rect x="81" y="1" width="10" height="80" fill="none" stroke="none" pointer-events="all"/><path d="M 81 40.88 C 83.03 1.21 83.99 1 86 40.88 C 88.01 80.76 88.95 81 91 40.88" fill="none" stroke="#cc0000" stroke-width="3" stroke-miterlimit="10" pointer-events="all"/><rect x="91" y="1" width="10" height="80" fill="none" stroke="none" pointer-events="all"/><path d="M 91 40.88 C 93.03 1.21 93.99 1 96 40.88 C 98.01 80.76 98.95 81 101 40.88" fill="none" stroke="#cc0000" stroke-width="3" stroke-miterlimit="10" pointer-events="all"/><rect x="100.9" y="31.3" width="20" height="20" fill="none" stroke="none" pointer-events="all"/><path d="M 100.9 41.27 C 104.97 31.35 106.89 31.3 110.9 41.27 C 114.91 51.24 116.79 51.3 120.9 41.27" fill="none" stroke="rgb(0, 0, 0)" stroke-width="3" stroke-miterlimit="10" pointer-events="all"/><rect x="120.9" y="31.3" width="20" height="20" fill="none" stroke="none" pointer-events="all"/><path d="M 120.9 41.27 C 124.97 31.35 126.89 31.3 130.9 41.27 C 134.91 51.24 136.79 51.3 140.9 41.27" fill="none" stroke="rgb(0, 0, 0)" stroke-width="3" stroke-miterlimit="10" pointer-events="all"/><rect x="140.9" y="31.3" width="20" height="20" fill="none" stroke="none" pointer-events="all"/><path d="M 140.9 41.27 C 144.97 31.35 146.89 31.3 150.9 41.27 C 154.91 51.24 156.79 51.3 160.9 41.27" fill="none" stroke="rgb(0, 0, 0)" stroke-width="3" stroke-miterlimit="10" pointer-events="all"/></g></svg>