<?xml version="1.0" encoding="UTF-8"?>
<!DOCTYPE svg PUBLIC "-//W3C//DTD SVG 1.1//EN" "http://www.w3.org/Graphics/SVG/1.1/DTD/svg11.dtd">
<svg xmlns="http://www.w3.org/2000/svg" xmlns:xlink="http://www.w3.org/1999/xlink" version="1.1" width="162px" height="82px" viewBox="-0.5 -0.5 162 82"><defs/><g><rect x="60" y="1" width="10" height="80" fill="none" stroke="none" pointer-events="all"/><path d="M 60 40.88 C 62.03 1.21 62.99 1 65 40.88 C 67.01 80.76 67.95 81 70 40.88" fill="none" stroke="#cc0000" stroke-width="2" stroke-miterlimit="10" pointer-events="all"/><rect x="0.1" y="30.6" width="20" height="20" fill="none" stroke="none" pointer-events="all"/><path d="M 0.1 40.57 C 4.17 30.65 6.09 30.6 10.1 40.57 C 14.11 50.54 15.99 50.6 20.1 40.57" fill="none" stroke="rgb(0, 0, 0)" stroke-width="2" stroke-miterlimit="10" pointer-events="all"/><rect x="20.1" y="30.6" width="20" height="20" fill="none" stroke="none" pointer-events="all"/><path d="M 20.1 40.57 C 24.17 30.65 26.09 30.6 30.1 40.57 C 34.11 50.54 35.99 50.6 40.1 40.57" fill="none" stroke="rgb(0, 0, 0)" stroke-width="2" stroke-miterlimit="10" pointer-events="all"/><rect x="40.1" y="30.6" width="20" height="20" fill="none" stroke="none" pointer-events="all"/><path d="M 40.1 40.57 C 44.17 30.65 46.09 30.6 50.1 40.57 C 54.11 50.54 55.99 50.6 60.1 40.57" fill="none" stroke="rgb(0, 0, 0)" stroke-width="2" stroke-miterlimit="10" pointer-events="all"/><rect x="70" y="1" width="10" height="80" fill="none" stroke="none" pointer-events="all"/><path d="M 70 40.88 C 72.03 1.21 72.99 1 75 40.88 C 77.01 80.76 77.95 81 80 40.88" fill="none" stroke="#cc0000" stroke-width="2" stroke-miterlimit="10" pointer-events="all"/><rect x="80" y="1" width="10" height="80" fill="none" stroke="none" pointer-events="all"/><path d="M 80 40.88 C 82.03 1.21 82.99 1 85 40.88 C 87.01 80.76 87.95 81 90 40.88" fill="none" stroke="#cc0000" stroke-width="2" stroke-miterlimit="10" pointer-events="all"/><rect x="90" y="1" width="10" height="80" fill="none" stroke="none" pointer-events="all"/><path d="M 90 40.88 C 92.03 1.21 92.99 1 95 40.88 C 97.01 80.76 97.95 81 100 40.88" fill="none" stroke="#cc0000" stroke-width="2" stroke-miterlimit="10" pointer-events="all"/><rect x="99.9" y="31.3" width="20" height="20" fill="none" stroke="none" pointer-events="all"/><path d="M 99.9 41.27 C 103.97 31.35 105.89 31.3 109.9 41.27 C 113.91 51.24 115.79 51.3 119.9 41.27" fill="none" stroke="rgb(0, 0, 0)" stroke-width="2" stroke-miterlimit="10" pointer-events="all"/><rect x="119.9" y="31.3" width="20" height="20" fill="none" stroke="none" pointer-events="all"/><path d="M 119.9 41.27 C 123.97 31.35 125.89 31.3 129.9 41.27 C 133.91 51.24 135.79 51.3 139.9 41.27" fill="none" stroke="rgb(0, 0, 0)" stroke-width="2" stroke-miterlimit="10" pointer-events="all"/><rect x="139.9" y="31.3" width="20" height="20" fill="none" stroke="none" pointer-events="all"/><path d="M 139.9 41.27 C 143.97 31.35 145.89 31.3 149.9 41.27 C 153.91 51.24 155.79 51.3 159.9 41.27" fill="none" stroke="rgb(0, 0, 0)" stroke-width="2" stroke-miterlimit="10" pointer-events="all"/></g></svg>