<?xml version="1.0" encoding="iso-8859-1"?>
<!-- Generator: Adobe Illustrator 18.0.0, SVG Export Plug-In . SVG Version: 6.00 Build 0)  -->
<!DOCTYPE svg PUBLIC "-//W3C//DTD SVG 1.1//EN" "http://www.w3.org/Graphics/SVG/1.1/DTD/svg11.dtd">
<svg version="1.1" id="Capa_1" xmlns="http://www.w3.org/2000/svg" xmlns:xlink="http://www.w3.org/1999/xlink" x="0px" y="0px"
	 viewBox="0 0 269.106 269.106" style="enable-background:new 0 0 269.106 269.106;" xml:space="preserve">
<g>
	<path fill="#CC0000" d="M143.883,73.8c6.877-3.44,11.622-10.535,11.622-18.733c0-11.555-9.399-20.955-20.953-20.955s-20.954,9.4-20.954,20.955
		c0,8.199,4.745,15.293,11.623,18.733L71.607,259.524c-1.148,3.98,1.146,8.137,5.126,9.286c3.98,1.148,8.138-1.146,9.286-5.125
		l17.015-58.941h63.035l17.015,58.941c0.948,3.285,3.946,5.422,7.202,5.422c0.688,0,1.39-0.096,2.084-0.296
		c3.979-1.148,6.274-5.306,5.126-9.286L143.883,73.8z M134.552,49.112c3.282,0,5.953,2.671,5.953,5.955
		c0,3.283-2.671,5.953-5.953,5.953c-3.283,0-5.954-2.67-5.954-5.953C128.598,51.783,131.269,49.112,134.552,49.112z
		 M146.046,135.381h-22.989l11.495-39.819L146.046,135.381z M107.363,189.743l11.363-39.361h31.649l11.362,39.361H107.363z"/>
	<path fill="#CC0000" d="M87.697,110.833c1.957,0,3.912-0.761,5.382-2.276c2.886-2.972,2.815-7.72-0.156-10.605
		C81.228,86.597,74.786,71.369,74.786,55.073c0-15.966,6.217-30.978,17.506-42.27c2.929-2.929,2.929-7.678-0.001-10.607
		c-2.931-2.93-7.68-2.928-10.606,0.001C67.564,16.322,59.786,35.101,59.786,55.073c0,20.387,8.058,39.437,22.688,53.641
		C83.932,110.128,85.816,110.833,87.697,110.833z"/>
	<path fill="#CC0000" d="M194.32,55.073c0,15.959-6.216,30.965-17.503,42.254c-2.929,2.929-2.929,7.678,0.001,10.606
		c1.465,1.464,3.384,2.196,5.303,2.196c1.919,0,3.84-0.732,5.304-2.197c14.119-14.122,21.895-32.894,21.895-52.859
		c0-19.972-7.777-38.75-21.9-52.875c-2.929-2.929-7.678-2.931-10.606-0.001c-2.93,2.929-2.93,7.677-0.001,10.607
		C188.102,24.095,194.32,39.107,194.32,55.073z"/>
	<path fill="#CC0000" d="M101.557,89.733c1.451,1.382,3.313,2.068,5.17,2.068c1.981,0,3.959-0.78,5.434-2.329c2.855-3.001,2.738-7.748-0.262-10.604
		c-6.582-6.266-10.207-14.719-10.207-23.802c0-8.778,3.418-17.032,9.625-23.24c2.929-2.93,2.928-7.678-0.001-10.607
		c-2.931-2.929-7.68-2.928-10.606,0.001c-9.039,9.042-14.018,21.062-14.018,33.846C86.692,68.297,91.971,80.608,101.557,89.733z"/>
	<path fill="#CC0000" d="M157.789,88.906c1.465,1.464,3.384,2.196,5.303,2.196c1.92,0,3.84-0.732,5.304-2.197
		c9.038-9.041,14.016-21.058,14.016-33.838c0-12.341-4.684-24.059-13.188-32.995c-2.855-3-7.602-3.118-10.604-0.262
		c-3,2.855-3.117,7.603-0.262,10.603c5.838,6.135,9.054,14.18,9.054,22.654c0,8.775-3.418,17.025-9.623,23.233
		C154.86,81.229,154.861,85.978,157.789,88.906z"/>
</g>
<g>
</g>
<g>
</g>
<g>
</g>
<g>
</g>
<g>
</g>
<g>
</g>
<g>
</g>
<g>
</g>
<g>
</g>
<g>
</g>
<g>
</g>
<g>
</g>
<g>
</g>
<g>
</g>
<g>
</g>
</svg>
