<?xml version="1.0" encoding="iso-8859-1"?>
<!-- Generator: Adobe Illustrator 18.0.0, SVG Export Plug-In . SVG Version: 6.00 Build 0)  -->
<!DOCTYPE svg PUBLIC "-//W3C//DTD SVG 1.1//EN" "http://www.w3.org/Graphics/SVG/1.1/DTD/svg11.dtd">
<svg version="1.1" id="Capa_1" xmlns="http://www.w3.org/2000/svg" xmlns:xlink="http://www.w3.org/1999/xlink" x="0px" y="0px"
	 viewBox="0 0 203.556 203.556" style="enable-background:new 0 0 203.556 203.556;" xml:space="preserve">
<g>
	<path d="M201.359,137.3l-43.831-43.831l11.453-11.452c1.407-1.407,2.197-3.314,2.197-5.304c0-1.989-0.79-3.896-2.197-5.304
		l-36.835-36.834c-2.929-2.928-7.677-2.928-10.606,0l-11.452,11.452L66.253,2.196c-2.93-2.928-7.678-2.928-10.606,0L18.813,39.03
		c-2.929,2.93-2.929,7.678,0,10.607l43.831,43.831l-11.453,11.452c-1.407,1.407-2.197,3.314-2.197,5.304s0.79,3.896,2.197,5.304
		l36.837,36.836c1.464,1.464,3.384,2.196,5.303,2.196c1.919,0,3.839-0.732,5.303-2.196l11.453-11.453l43.83,43.83
		c1.465,1.464,3.384,2.196,5.303,2.196c1.919,0,3.839-0.732,5.303-2.196l36.835-36.834c1.407-1.407,2.197-3.314,2.197-5.304
		C203.556,140.614,202.766,138.707,201.359,137.3z M34.723,44.334L60.95,18.107l38.53,38.526L82.314,73.799l-9.063,9.063
		L34.723,44.334z M93.331,136.454l-26.23-26.229l11.448-11.447c0.002-0.002,0.003-0.003,0.005-0.005l12.443-12.443l35.845-35.844
		l26.229,26.228l-11.446,11.446c-0.003,0.003-0.005,0.005-0.007,0.007l-18.417,18.418L93.331,136.454z M159.221,168.831
		l-38.527-38.526l26.229-26.229l38.527,38.527L159.221,168.831z"/>
	<path d="M72.344,188.555c-15.317,0.001-29.717-5.964-40.548-16.795C20.965,160.929,15,146.528,15,131.211
		c0-4.143-3.358-7.5-7.5-7.5c-4.143,0-7.5,3.358-7.5,7.5c0,19.324,7.526,37.491,21.189,51.155
		c13.663,13.664,31.829,21.189,51.152,21.189c0.001,0,0.002,0,0.004,0c4.142,0,7.499-3.358,7.499-7.5
		C79.845,191.912,76.486,188.555,72.344,188.555z"/>
	<path d="M69.346,174.133c4.142,0,7.5-3.357,7.5-7.5c0-4.143-3.358-7.5-7.5-7.5c-6.658,0-12.916-2.593-17.624-7.3
		c-4.707-4.707-7.299-10.965-7.299-17.622c0-4.142-3.357-7.5-7.5-7.5h0c-4.142,0-7.5,3.358-7.5,7.5
		c-0.001,10.663,4.152,20.688,11.693,28.229C48.656,169.981,58.682,174.133,69.346,174.133z"/>
</g>
<g>
</g>
<g>
</g>
<g>
</g>
<g>
</g>
<g>
</g>
<g>
</g>
<g>
</g>
<g>
</g>
<g>
</g>
<g>
</g>
<g>
</g>
<g>
</g>
<g>
</g>
<g>
</g>
<g>
</g>
</svg>
