<?xml version="1.0" encoding="iso-8859-1"?>
<!-- Generator: Adobe Illustrator 18.0.0, SVG Export Plug-In . SVG Version: 6.00 Build 0)  -->
<!DOCTYPE svg PUBLIC "-//W3C//DTD SVG 1.1//EN" "http://www.w3.org/Graphics/SVG/1.1/DTD/svg11.dtd">
<svg version="1.1" id="Capa_1" xmlns="http://www.w3.org/2000/svg" xmlns:xlink="http://www.w3.org/1999/xlink" x="0px" y="0px"
	 viewBox="0 0 297 297" style="enable-background:new 0 0 297 297;" xml:space="preserve">
<g>
	<path d="M166.264,259C166.267,259,166.262,259,166.264,259c24.646,0,50.552-6.369,71.899-18.432
		c2.737-1.547,4.594-4.283,5.019-7.398c0.425-3.115-0.631-6.25-2.855-8.473l-66.434-66.443c9.732-13.521,8.528-32.537-3.625-44.694
		c-12.152-12.152-31.166-13.356-44.686-3.623L59.151,43.495c-2.223-2.224-5.358-3.279-8.474-2.854
		c-3.115,0.425-5.854,2.282-7.399,5.02c-28.422,50.313-23.286,112.725,11.358,157.69l-40.393,79.091
		c-1.559,3.118-1.392,6.822,0.441,9.788c1.833,2.966,5.071,4.771,8.558,4.771h132.963c5.556,0,10.06-4.504,10.06-10.06V259z
		 M156.04,127.786c4.256,4.256,5.307,10.52,3.157,15.77l-18.919-18.923C145.527,122.482,151.788,123.532,156.04,127.786z
		 M146.145,276.88H39.518l29.003-58.015c21.534,20.814,48.478,34.097,77.624,38.509V276.88z M167.859,238.887
		c-0.002,0-0.006,0-0.008,0c-32.827-0.002-63.688-12.786-86.896-35.997c-35.689-35.695-45.609-89.648-26.126-135.261
		l161.364,161.385C200.996,235.501,184.521,238.887,167.859,238.887z"/>
	<path d="M153.607,73.852c31.08,0,56.366,25.289,56.367,56.375c0,5.556,4.505,10.06,10.06,10.06c5.557,0,10.061-4.505,10.061-10.06
		c-0.001-42.18-34.313-76.495-76.487-76.495c-5.556,0-10.059,4.504-10.059,10.06C143.548,69.347,148.052,73.852,153.607,73.852z"/>
	<path d="M153.607,0c-5.556,0-10.059,4.504-10.059,10.06c0,5.556,4.503,10.061,10.059,10.061
		c60.704,0.001,110.091,49.394,110.091,110.106c0,5.555,4.504,10.06,10.06,10.06c5.556,0,10.061-4.505,10.061-10.06
		C283.818,58.42,225.405,0.001,153.607,0z"/>
</g>
<g>
</g>
<g>
</g>
<g>
</g>
<g>
</g>
<g>
</g>
<g>
</g>
<g>
</g>
<g>
</g>
<g>
</g>
<g>
</g>
<g>
</g>
<g>
</g>
<g>
</g>
<g>
</g>
<g>
</g>
</svg>
