<?xml version="1.0" encoding="UTF-8"?>
<!DOCTYPE svg PUBLIC "-//W3C//DTD SVG 1.1//EN" "http://www.w3.org/Graphics/SVG/1.1/DTD/svg11.dtd">
<svg xmlns="http://www.w3.org/2000/svg" xmlns:xlink="http://www.w3.org/1999/xlink" version="1.1" width="161px" height="21px" viewBox="-0.5 -0.5 161 21"><defs/><g><path d="M 0 9.97 C 4.07 0.05 5.99 0 10 9.97 C 14.01 19.94 15.89 20 20 9.97" fill="none" stroke="rgb(0, 0, 0)" stroke-miterlimit="10" pointer-events="none"/><path d="M 20 9.97 C 24.07 0.05 25.99 0 30 9.97 C 34.01 19.94 35.89 20 40 9.97" fill="none" stroke="rgb(0, 0, 0)" stroke-miterlimit="10" pointer-events="none"/><path d="M 40 9.97 C 44.07 0.05 45.99 0 50 9.97 C 54.01 19.94 55.89 20 60 9.97" fill="none" stroke="rgb(0, 0, 0)" stroke-miterlimit="10" pointer-events="none"/><path d="M 60 9.97 C 64.07 0.05 65.99 0 70 9.97 C 74.01 19.94 75.89 20 80 9.97" fill="none" stroke="rgb(0, 0, 0)" stroke-miterlimit="10" pointer-events="none"/><path d="M 80 9.97 C 84.07 0.05 85.99 0 90 9.97 C 94.01 19.94 95.89 20 100 9.97" fill="none" stroke="rgb(0, 0, 0)" stroke-miterlimit="10" pointer-events="none"/><path d="M 100 9.97 C 104.07 0.05 105.99 0 110 9.97 C 114.01 19.94 115.89 20 120 9.97" fill="none" stroke="rgb(0, 0, 0)" stroke-miterlimit="10" pointer-events="none"/><path d="M 120 9.97 C 124.07 0.05 125.99 0 130 9.97 C 134.01 19.94 135.89 20 140 9.97" fill="none" stroke="rgb(0, 0, 0)" stroke-miterlimit="10" pointer-events="none"/><path d="M 140 9.97 C 144.07 0.05 145.99 0 150 9.97 C 154.01 19.94 155.89 20 160 9.97" fill="none" stroke="rgb(0, 0, 0)" stroke-miterlimit="10" pointer-events="none"/></g></svg>