<?xml version="1.0" encoding="UTF-8"?>
<!DOCTYPE svg PUBLIC "-//W3C//DTD SVG 1.1//EN" "http://www.w3.org/Graphics/SVG/1.1/DTD/svg11.dtd">
<svg xmlns="http://www.w3.org/2000/svg" xmlns:xlink="http://www.w3.org/1999/xlink" version="1.1" width="162px" height="81px" viewBox="-0.5 -0.5 162 81"><defs/><g><path d="M 60 39.88 C 62.03 0.21 62.99 0 65 39.88 C 67.01 79.76 67.95 80 70 39.88" fill="none" stroke="#cc0000" stroke-miterlimit="10" pointer-events="none"/><path d="M 70 39.88 C 72.03 0.21 72.99 0 75 39.88 C 77.01 79.76 77.95 80 80 39.88" fill="none" stroke="#cc0000" stroke-miterlimit="10" pointer-events="none"/><path d="M 80 39.88 C 82.03 0.21 82.99 0 85 39.88 C 87.01 79.76 87.95 80 90 39.88" fill="none" stroke="#cc0000" stroke-miterlimit="10" pointer-events="none"/><path d="M 90 39.88 C 92.03 0.21 92.99 0 95 39.88 C 97.01 79.76 97.95 80 100 39.88" fill="none" stroke="#cc0000" stroke-miterlimit="10" pointer-events="none"/><path d="M 0 40 L 60 40" fill="none" stroke="#cc0000" stroke-miterlimit="10" pointer-events="none"/><path d="M 100 40 L 160 40" fill="none" stroke="#cc0000" stroke-miterlimit="10" pointer-events="none"/></g></svg>