<?xml version="1.0" encoding="UTF-8"?>
<!DOCTYPE svg PUBLIC "-//W3C//DTD SVG 1.1//EN" "http://www.w3.org/Graphics/SVG/1.1/DTD/svg11.dtd">
<svg xmlns="http://www.w3.org/2000/svg" xmlns:xlink="http://www.w3.org/1999/xlink" version="1.1" width="164px" height="24px" viewBox="-0.5 -0.5 164 24"><defs/><g><rect x="1" y="1" width="20" height="20" fill="none" stroke="none" pointer-events="all"/><path d="M 1 10.97 C 5.07 1.05 6.99 1 11 10.97 C 15.01 20.94 16.89 21 21 10.97" fill="none" stroke="rgb(0, 0, 0)" stroke-width="3" stroke-miterlimit="10" pointer-events="all"/><rect x="21" y="1" width="20" height="20" fill="none" stroke="none" pointer-events="all"/><path d="M 21 10.97 C 25.07 1.05 26.99 1 31 10.97 C 35.01 20.94 36.89 21 41 10.97" fill="none" stroke="rgb(0, 0, 0)" stroke-width="3" stroke-miterlimit="10" pointer-events="all"/><rect x="41" y="1" width="20" height="20" fill="none" stroke="none" pointer-events="all"/><path d="M 41 10.97 C 45.07 1.05 46.99 1 51 10.97 C 55.01 20.94 56.89 21 61 10.97" fill="none" stroke="rgb(0, 0, 0)" stroke-width="3" stroke-miterlimit="10" pointer-events="all"/><rect x="61" y="1" width="20" height="20" fill="none" stroke="none" pointer-events="all"/><path d="M 61 10.97 C 65.07 1.05 66.99 1 71 10.97 C 75.01 20.94 76.89 21 81 10.97" fill="none" stroke="rgb(0, 0, 0)" stroke-width="3" stroke-miterlimit="10" pointer-events="all"/><rect x="81" y="1" width="20" height="20" fill="none" stroke="none" pointer-events="all"/><path d="M 81 10.97 C 85.07 1.05 86.99 1 91 10.97 C 95.01 20.94 96.89 21 101 10.97" fill="none" stroke="rgb(0, 0, 0)" stroke-width="3" stroke-miterlimit="10" pointer-events="all"/><rect x="101" y="1" width="20" height="20" fill="none" stroke="none" pointer-events="all"/><path d="M 101 10.97 C 105.07 1.05 106.99 1 111 10.97 C 115.01 20.94 116.89 21 121 10.97" fill="none" stroke="rgb(0, 0, 0)" stroke-width="3" stroke-miterlimit="10" pointer-events="all"/><rect x="121" y="1" width="20" height="20" fill="none" stroke="none" pointer-events="all"/><path d="M 121 10.97 C 125.07 1.05 126.99 1 131 10.97 C 135.01 20.94 136.89 21 141 10.97" fill="none" stroke="rgb(0, 0, 0)" stroke-width="3" stroke-miterlimit="10" pointer-events="all"/><rect x="141" y="1" width="20" height="20" fill="none" stroke="none" pointer-events="all"/><path d="M 141 10.97 C 145.07 1.05 146.99 1 151 10.97 C 155.01 20.94 156.89 21 161 10.97" fill="none" stroke="rgb(0, 0, 0)" stroke-width="3" stroke-miterlimit="10" pointer-events="all"/></g></svg>