<?xml version="1.0" encoding="UTF-8"?>
<!DOCTYPE svg PUBLIC "-//W3C//DTD SVG 1.1//EN" "http://www.w3.org/Graphics/SVG/1.1/DTD/svg11.dtd">
<svg xmlns="http://www.w3.org/2000/svg" xmlns:xlink="http://www.w3.org/1999/xlink" version="1.1" width="161px" height="81px" viewBox="-0.5 -0.5 161 81"><defs/><g><path d="M 60 39.88 C 62.03 0.21 62.99 0 65 39.88 C 67.01 79.76 67.95 80 70 39.88" fill="none" stroke="#cc0000" stroke-miterlimit="10" pointer-events="none"/><path d="M 70 39.88 C 72.03 0.21 72.99 0 75 39.88 C 77.01 79.76 77.95 80 80 39.88" fill="none" stroke="#cc0000" stroke-miterlimit="10" pointer-events="none"/><path d="M 80 39.88 C 82.03 0.21 82.99 0 85 39.88 C 87.01 79.76 87.95 80 90 39.88" fill="none" stroke="#cc0000" stroke-miterlimit="10" pointer-events="none"/><path d="M 90 39.88 C 92.03 0.21 92.99 0 95 39.88 C 97.01 79.76 97.95 80 100 39.88" fill="none" stroke="#cc0000" stroke-miterlimit="10" pointer-events="none"/><path d="M 0 39.97 C 4.07 30.05 5.99 30 10 39.97 C 14.01 49.94 15.89 50 20 39.97" fill="none" stroke="rgb(0, 0, 0)" stroke-miterlimit="10" pointer-events="none"/><path d="M 20 39.97 C 24.07 30.05 25.99 30 30 39.97 C 34.01 49.94 35.89 50 40 39.97" fill="none" stroke="rgb(0, 0, 0)" stroke-miterlimit="10" pointer-events="none"/><path d="M 40 39.97 C 44.07 30.05 45.99 30 50 39.97 C 54.01 49.94 55.89 50 60 39.97" fill="none" stroke="rgb(0, 0, 0)" stroke-miterlimit="10" pointer-events="none"/><path d="M 100 39.97 C 104.07 30.05 105.99 30 110 39.97 C 114.01 49.94 115.89 50 120 39.97" fill="none" stroke="rgb(0, 0, 0)" stroke-miterlimit="10" pointer-events="none"/><path d="M 120 39.97 C 124.07 30.05 125.99 30 130 39.97 C 134.01 49.94 135.89 50 140 39.97" fill="none" stroke="rgb(0, 0, 0)" stroke-miterlimit="10" pointer-events="none"/><path d="M 140 39.97 C 144.07 30.05 145.99 30 150 39.97 C 154.01 49.94 155.89 50 160 39.97" fill="none" stroke="rgb(0, 0, 0)" stroke-miterlimit="10" pointer-events="none"/></g></svg>